<svg width="24" height="24" xmlns="http://www.w3.org/2000/svg" fill-rule="evenodd" clip-rule="evenodd"><path d="M10 24h-4v-17.61c.604-.093 1.22-.315 1.779-.753.804-.628 1.352-1.627 1.564-2.837h5.321c.212 1.21.76 2.209 1.564 2.837.557.436 1.17.658 1.772.752v17.611h-4l-1.968-15-2.032 15zm-4-21.2h2.529c-.192.951-.626 1.724-1.243 2.207-.364.286-.794.476-1.286.569v-2.776zm9.479 0h2.521v2.775c-.489-.094-.916-.283-1.279-.568-.617-.483-1.05-1.256-1.242-2.207zm2.521-.8h-12v-2h12v2zm-6-1.5c.276 0 .5.224.5.5s-.224.5-.5.5-.5-.224-.5-.5.224-.5.5-.5z"/></svg>